<?xml version="1.0" encoding="UTF-8" standalone="no"?>
<!DOCTYPE svg PUBLIC "-//W3C//DTD SVG 1.1//EN" "http://www.w3.org/Graphics/SVG/1.1/DTD/svg11.dtd">
<svg width="100%" height="100%" viewBox="0 0 500 500" version="1.1" xmlns="http://www.w3.org/2000/svg" xmlns:xlink="http://www.w3.org/1999/xlink" xml:space="preserve" xmlns:serif="http://www.serif.com/" style="fill-rule:evenodd;clip-rule:evenodd;stroke-linejoin:round;stroke-miterlimit:2;">
    <g transform="matrix(1,0,0,1,-627,0)">
        <g id="诺飞-黑字" serif:id="诺飞 黑字" transform="matrix(0.340098,0,0,0.343367,-228.494,0)">
            <rect x="2515.44" y="0" width="1470.17" height="1456.17" style="fill:none;"/>
            <g>
                <g transform="matrix(0.303903,0,0,0.301009,2568.79,478.919)">
                    <g transform="matrix(1.19993,0,0,1.19993,-128.388,-50.9108)">
                        <path d="M1109.54,279.402C1191.94,279.402 1269.26,301.353 1335.95,339.722C1465.36,414.173 1196.21,321.28 1304.89,584.587C1460.25,960.998 1228.91,593.487 1111.24,711.154C986.809,835.589 1277.92,976.471 1122.69,1131.7C1075.54,1178.86 979.499,1175 922.409,1149.18C764.523,1077.76 654.555,918.816 654.555,734.389C654.555,483.275 858.429,279.402 1109.54,279.402ZM871.769,900.09C734.637,691.234 761.982,552.687 787.342,491.203C736.177,558.859 705.817,643.107 705.817,734.389C705.817,820.573 732.88,900.485 778.964,966.084C844.38,1059.2 934.228,995.217 871.769,900.09Z" style="fill:url(#_Linear1);"/>
                    </g>
                    <g transform="matrix(1.19993,0,0,1.19993,-128.388,-50.9108)">
                        <path d="M1052.55,379.396C1080.85,283.504 1264.12,299.922 1329.28,335.96C1469.5,413.517 1564.53,562.942 1564.53,734.389C1564.53,958.573 1402.04,1145.11 1188.51,1182.54C1162.86,1187.03 1113.8,1189.6 1118.24,1156.21C1123.68,1115.38 1189.1,1109.11 1252.35,1025.7C1301.08,961.431 1320.16,847.027 1232.68,737.472C1113.66,588.425 1017.52,498.104 1052.55,379.396ZM1316.08,478.753C1290.37,525.411 1371.56,556.438 1412.41,590.642C1453.25,624.845 1490.26,648.002 1513.27,734.389C1513.27,511.567 1349.68,417.79 1316.08,478.753ZM1380.88,653.682C1355.28,687.862 1414.99,727.658 1419.46,843.909C1422.88,932.696 1407.56,981.053 1367.17,1045.15C1456.4,971.066 1507.21,858.044 1474.52,737.472C1461.03,687.741 1402.26,625.14 1380.88,653.682Z" style="fill:url(#_Linear2);"/>
                    </g>
                    <g transform="matrix(1.19993,0,0,1.19993,-128.388,-50.9108)">
                        <path d="M1106.74,299.525C1112.53,326.531 1057.62,339.923 1011.59,375.955C918.333,448.96 849.618,599.587 984.615,760.416C1195.7,1011.89 1170.9,1108.8 1127.41,1109.46C1057.85,1110.52 1115.12,1010.23 952.53,810.728C767.853,584.135 914.192,403.561 952.804,360.963C913.329,384.839 829.687,461.442 822.877,573.306C809.503,792.977 935.808,827.365 974.511,982.344C1000.42,1086.08 900.443,1144.67 843.069,1103.12C728.888,1020.42 654.555,886.018 654.555,734.389C654.555,501.19 830.377,308.731 1056.58,282.458C1073.95,280.439 1102.2,278.373 1106.74,299.525ZM871.769,900.09C734.637,691.234 761.982,552.687 787.342,491.203C736.177,558.859 705.817,643.107 705.817,734.389C705.817,820.573 732.88,900.485 778.964,966.084C844.38,1059.2 934.228,995.217 871.769,900.09Z" style="fill:url(#_Linear3);"/>
                    </g>
                </g>
                <g transform="matrix(11.6895,0,0,11.5782,-4043.74,-13460.9)">
                    <path d="M624.604,1220.5C623.811,1220.47 621.734,1217.46 621.563,1216.96L623.037,1215.6C623.174,1215.94 625.595,1218.81 626.161,1219.16C626.161,1219.16 625.387,1220.53 624.604,1220.5ZM634.895,1221.41L634.895,1219.84L631.485,1219.84L631.485,1220.83L633.443,1221.32C633.37,1221.58 633.289,1221.84 633.201,1222.09C633.113,1222.34 633.033,1222.58 632.959,1222.81L639.845,1222.81L639.845,1224.9L632.079,1224.9C631.713,1225.67 631.28,1226.37 630.781,1227.02L638.349,1227.02L638.349,1235.35L636.215,1235.35L636.215,1234.28L630.495,1234.28L630.495,1235.35L628.339,1235.35L628.339,1229.57L627.063,1230.62L625.897,1228.67C626.763,1228.02 627.485,1227.4 628.064,1226.82C628.644,1226.23 629.146,1225.59 629.571,1224.9L626.293,1224.9L626.293,1222.81L630.583,1222.81C630.671,1222.59 630.756,1222.37 630.836,1222.14C630.917,1221.92 630.994,1221.68 631.067,1221.43L629.395,1221.43L629.395,1219.84L626.777,1219.84L626.777,1217.8L629.395,1217.8L629.395,1215.73L631.485,1215.82L631.485,1217.8L634.895,1217.8L634.895,1215.73L636.941,1215.82L636.941,1217.8L640.131,1217.8L640.131,1219.84L636.941,1219.84L636.941,1221.41L634.895,1221.41ZM626.415,1229.99C626.415,1229.99 627.063,1231.29 627.063,1231.68C627.063,1232.06 626.315,1232.91 625.699,1233.47C625.506,1233.65 625.309,1233.83 625.108,1234.03C624.67,1234.44 623.823,1234.14 623.474,1233.66C623.256,1233.36 622.927,1232.74 622.927,1232.08L622.927,1224.42L620.837,1224.42L620.837,1222.24L625.105,1222.24L625.105,1231.13L626.415,1229.99ZM636.215,1229.04L630.495,1229.04L630.495,1232.27L636.215,1232.27L636.215,1229.04Z" style="fill:rgb(38,38,38);fill-rule:nonzero;"/>
                </g>
                <g transform="matrix(4.72645,0,0,4.68144,7583.41,-5026.05)">
                    <path d="M-812.805,1244.99C-813.703,1247.32 -816.329,1249.89 -817.431,1250.72C-818.532,1251.55 -819.967,1251.97 -821.737,1251.97C-823.29,1251.97 -824.806,1251.58 -826.287,1250.8C-827.767,1250.03 -829.194,1248.77 -830.566,1247.04C-831.721,1245.63 -832.696,1244.08 -833.491,1242.38C-834.285,1240.68 -834.935,1238.73 -835.441,1236.53C-835.946,1234.33 -836.317,1231.85 -836.551,1229.08C-836.786,1226.32 -836.903,1223.17 -836.903,1219.63L-836.903,1211.99L-858.949,1211.99L-858.949,1206.31L-831.378,1206.31L-831.378,1220.59C-831.378,1220.59 -821.969,1211.39 -821.319,1210.74C-821.319,1210.74 -816.652,1214.84 -818.714,1216.9C-820.055,1218.24 -823.61,1221.79 -823.61,1221.79L-813.611,1232.1L-817.908,1236.04C-818.666,1235.46 -831.27,1223.02 -831.27,1223.02C-831.27,1223.02 -830.99,1229.36 -830.756,1231.17C-830.521,1232.97 -830.196,1234.59 -829.781,1236.02C-829.365,1237.44 -828.869,1238.73 -828.291,1239.89C-827.713,1241.05 -827.045,1242.11 -826.287,1243.09C-825.528,1244.06 -824.797,1244.76 -824.093,1245.17C-823.389,1245.59 -822.748,1245.79 -822.17,1245.79C-821.448,1245.79 -820.359,1245.28 -819.292,1244.1C-818.268,1242.98 -817.701,1241.86 -817.186,1240.74L-812.805,1244.99Z" style="fill:rgb(38,38,38);"/>
                </g>
            </g>
        </g>
    </g>
    <defs>
        <linearGradient id="_Linear1" x1="0" y1="0" x2="1" y2="0" gradientUnits="userSpaceOnUse" gradientTransform="matrix(557.796,-682.362,682.362,557.796,835.462,1069.41)"><stop offset="0" style="stop-color:rgb(19,67,164);stop-opacity:1"/><stop offset="0.46" style="stop-color:rgb(14,56,146);stop-opacity:1"/><stop offset="1" style="stop-color:rgb(0,30,101);stop-opacity:1"/></linearGradient>
        <linearGradient id="_Linear2" x1="0" y1="0" x2="1" y2="0" gradientUnits="userSpaceOnUse" gradientTransform="matrix(-135.38,858.489,-858.489,-135.38,1304.89,326.658)"><stop offset="0" style="stop-color:rgb(58,124,254);stop-opacity:1"/><stop offset="1" style="stop-color:rgb(0,58,214);stop-opacity:1"/></linearGradient>
        <linearGradient id="_Linear3" x1="0" y1="0" x2="1" y2="0" gradientUnits="userSpaceOnUse" gradientTransform="matrix(217.021,-802.842,802.842,217.021,859.711,1082.24)"><stop offset="0" style="stop-color:rgb(0,219,193);stop-opacity:1"/><stop offset="1" style="stop-color:rgb(0,189,152);stop-opacity:1"/></linearGradient>
    </defs>
</svg>
